<svg width="500" height="506" xmlns="http://www.w3.org/2000/svg" viewBox="0 -10 500 506"><rect x="0" y="-10" width="500" height="506" fill="#ffffff"></rect><defs><marker id="arrowhead-normal" markerWidth="10" markerHeight="10" refX="9" refY="3" orient="auto"><polygon points="0 0, 10 3, 0 6" fill="#546e7a"></polygon></marker><marker id="arrowhead-error" markerWidth="10" markerHeight="10" refX="9" refY="3" orient="auto"><polygon points="0 0, 10 3, 0 6" fill="#f44336"></polygon></marker><marker id="arrowhead-choice" markerWidth="10" markerHeight="10" refX="9" refY="3" orient="auto"><polygon points="0 0, 10 3, 0 6" fill="#7b1fa2"></polygon></marker><marker id="arrowhead-default" markerWidth="10" markerHeight="10" refX="9" refY="3" orient="auto"><polygon points="0 0, 10 3, 0 6" fill="#9c27b0"></polygon></marker><marker id="arrowhead-retry" markerWidth="10" markerHeight="10" refX="9" refY="3" orient="auto"><polygon points="0 0, 10 3, 0 6" fill="#f9a825"></polygon></marker></defs><g class="edges"><path d="M250,80L165,90" data-edge-id="SplitInput-&gt;ProcessItems#normal#0" fill="none" stroke="#546e7a" stroke-width="1.5" marker-end="url(#arrowhead-normal)"></path><path d="M80,80L165,90" data-edge-id="ProcessItems__itemreader-&gt;ProcessItems#normal#0" fill="none" stroke="#546e7a" stroke-width="1.5" marker-end="url(#arrowhead-normal)"></path><rect x="125.32" y="80" width="79.36" height="20" fill="#ffffff" stroke="#546e7a" stroke-width="0.5" rx="3"></rect><text x="165" y="90" text-anchor="middle" dominant-baseline="middle" fill="#546e7a" font-size="12">ItemReader</text><path d="M165,390L420,20" data-edge-id="ProcessItems-&gt;ProcessItems__resultwriter#normal#0" fill="none" stroke="#546e7a" stroke-width="1.5" marker-end="url(#arrowhead-normal)"></path><rect x="377.02" y="10" width="85.96" height="20" fill="#ffffff" stroke="#546e7a" stroke-width="0.5" rx="3"></rect><text x="420" y="20" text-anchor="middle" dominant-baseline="middle" fill="#546e7a" font-size="12">ResultWriter</text><path d="M165,140L165,130" data-edge-id="ProcessItems-&gt;ProcessItem#normal#0" fill="none" stroke="#546e7a" stroke-width="1.5" marker-end="url(#arrowhead-normal)"></path><path d="M165,190L165,194.167C165,198.333,165,206.667,165,215C165,223.333,165,231.667,165,235.833L165,240" data-edge-id="ProcessItem-&gt;ValidateItem#normal#0" fill="none" stroke="#546e7a" stroke-width="1.5" marker-end="url(#arrowhead-normal)"></path><path d="M165,300L165,304.167C165,308.333,165,316.667,165,325C165,333.333,165,341.667,165,345.833L165,350" data-edge-id="ValidateItem-&gt;ProcessItems__iterator__end#normal#0" fill="none" stroke="#546e7a" stroke-width="1.5" marker-end="url(#arrowhead-normal)"></path><path d="M165,390L165,416" data-edge-id="ProcessItems-&gt;Done#normal#0" fill="none" stroke="#546e7a" stroke-width="1.5" marker-end="url(#arrowhead-normal)"></path></g><g class="containers"><g class="container container-Map" data-state-id="ProcessItems" data-state-type="Map" transform="translate(165, 240)"><rect x="-100" y="-150" width="200" height="300" rx="7" fill="#f1f8e9" stroke="#689f38" stroke-width="2" opacity="0.5"></rect><rect x="-100" y="-150" width="200" height="50" rx="7" fill="#f1f8e9" stroke="#689f38" stroke-width="2"></rect><text x="0" y="-125" text-anchor="middle" dominant-baseline="middle" fill="#212121" font-size="14" font-family="Arial, sans-serif">ProcessItems</text><text x="0" y="-107" text-anchor="middle" dominant-baseline="middle" fill="#212121" font-size="12" opacity="0.7">Distributed · max 100</text></g></g><g class="nodes"><g class="node node-Pass" data-state-id="SplitInput" data-state-type="Pass" transform="translate(250, 50)"><rect x="-60" y="-30" width="120" height="60" rx="5" fill="#e1f5fe" stroke="#0277bd" stroke-width="2"></rect><text x="0" y="0" text-anchor="middle" dominant-baseline="middle" fill="#212121" font-size="14" font-family="Arial, sans-serif">SplitInput</text></g><g class="node node-Task" data-state-id="ProcessItem" data-state-type="Task" transform="translate(165, 160)"><rect x="-60" y="-30" width="120" height="60" rx="5" fill="#fff3e0" stroke="#ef6c00" stroke-width="2"></rect><text x="0" y="0" text-anchor="middle" dominant-baseline="middle" fill="#212121" font-size="14" font-family="Arial, sans-serif">ProcessItem</text></g><g class="node node-Pass" data-state-id="ValidateItem" data-state-type="Pass" transform="translate(165, 270)"><rect x="-60" y="-30" width="120" height="60" rx="5" fill="#e1f5fe" stroke="#0277bd" stroke-width="2"></rect><text x="0" y="0" text-anchor="middle" dominant-baseline="middle" fill="#212121" font-size="14" font-family="Arial, sans-serif">ValidateItem</text></g><g class="node node-IteratorEnd" data-state-id="ProcessItems__iterator__end" data-state-type="IteratorEnd" transform="translate(165, 358)"><circle r="8" fill="#fff9cc" stroke="#687078" stroke-width="0.6"></circle><text x="0" y="0" text-anchor="middle" dominant-baseline="middle" fill="#212121" font-size="14" font-family="Arial, sans-serif"></text></g><g class="node node-ItemReader" data-state-id="ProcessItems__itemreader" data-state-type="ItemReader" transform="translate(80, 50)"><rect x="-60" y="-30" width="120" height="60" rx="5" fill="#eceff1" stroke="#607d8b" stroke-width="2"></rect><text x="0" y="0" text-anchor="middle" dominant-baseline="middle" fill="#212121" font-size="14" font-family="Arial, sans-serif">ItemReader (s3)</text></g><g class="node node-ResultWriter" data-state-id="ProcessItems__resultwriter" data-state-type="ResultWriter" transform="translate(420, 50)"><rect x="-60" y="-30" width="120" height="60" rx="5" fill="#eceff1" stroke="#607d8b" stroke-width="2"></rect><text x="0" y="0" text-anchor="middle" dominant-baseline="middle" fill="#212121" font-size="14" font-family="Arial, sans-serif">ResultWriter (s3)</text></g><g class="node node-Succeed" data-state-id="Done" data-state-type="Succeed" transform="translate(165, 446)"><rect x="-60" y="-30" width="120" height="60" rx="5" fill="#e8f5e8" stroke="#4caf50" stroke-width="3"></rect><text x="0" y="0" text-anchor="middle" dominant-baseline="middle" fill="#212121" font-size="14" font-family="Arial, sans-serif">Done</text></g></g></svg>